<?xml version="1.0" encoding="utf-8"?>
<!-- Generator: Adobe Illustrator 24.1.0, SVG Export Plug-In . SVG Version: 6.00 Build 0)  -->
<svg version="1.1" id="Layer_1" xmlns="http://www.w3.org/2000/svg" xmlns:xlink="http://www.w3.org/1999/xlink" x="0px" y="0px"
	 viewBox="0 0 24 16" style="enable-background:new 0 0 24 16;" xml:space="preserve">
<style type="text/css">
	.st0{fill:#367C88;}
</style>
<g>
	<g>
		<path class="st0" d="M21.47,0H2.53C1.13,0,0,1.13,0,2.53v10.95C0,14.87,1.13,16,2.53,16h18.95c1.4,0,2.53-1.13,2.53-2.53V2.53
			C24,1.13,22.87,0,21.47,0z M22,13.47c0,0.29-0.24,0.53-0.53,0.53H2.53C2.24,14,2,13.76,2,13.47V2.53C2,2.24,2.24,2,2.53,2h18.95
			C21.76,2,22,2.24,22,2.53V13.47z"/>
	</g>
	<g>
		<rect x="5.04" y="4.83" class="st0" width="3.95" height="2"/>
	</g>
	<g>
		<rect x="5.04" y="10.01" class="st0" width="5.98" height="2"/>
	</g>
	<g>
		<rect x="13.06" y="10.01" class="st0" width="5.98" height="2"/>
	</g>
</g>
</svg>
