<?xml version="1.0" encoding="utf-8"?>
<!-- Generator: Adobe Illustrator 24.1.0, SVG Export Plug-In . SVG Version: 6.00 Build 0)  -->
<svg version="1.1" id="Layer_1" xmlns="http://www.w3.org/2000/svg" xmlns:xlink="http://www.w3.org/1999/xlink" x="0px" y="0px"
	 viewBox="0 0 26 16" style="enable-background:new 0 0 26 16;" xml:space="preserve">
<style type="text/css">
	.st0{fill:#367C88;}
</style>
<g>
	<path class="st0" d="M7.94,5.24c-0.03-0.21-0.06-0.4-0.08-0.58C7.84,4.47,7.82,4.29,7.79,4.12C7.77,4.37,7.73,4.65,7.68,4.94
		c-0.05,0.3-0.11,0.6-0.17,0.92L6.92,8.92h1.76L8.05,5.87C8.01,5.66,7.98,5.45,7.94,5.24z"/>
	<path class="st0" d="M18.23,4.92c-0.1,0.25-0.16,0.57-0.16,0.96c0,0.61,0.12,1.06,0.35,1.35c0.24,0.29,0.59,0.44,1.05,0.44h0.58
		V4.19h-0.51c-0.33,0-0.61,0.06-0.83,0.18C18.49,4.49,18.33,4.67,18.23,4.92z"/>
	<path class="st0" d="M0,0v16h26V0H0z M9.54,13.27l-0.59-2.82H6.64l-0.58,2.82H4.18L6.66,2.73h2.2l2.54,10.54H9.54z M15.23,10.11
		h-3.44V8.5h3.44V10.11z M21.81,13.26h-1.76V9.05h-0.71l-1.71,4.22H15.7l2.1-4.64c-0.34-0.18-0.62-0.4-0.84-0.68
		c-0.22-0.28-0.38-0.6-0.49-0.98c-0.11-0.37-0.16-0.77-0.16-1.18c0-1.03,0.26-1.8,0.79-2.31c0.53-0.51,1.32-0.76,2.38-0.76h2.33
		V13.26z"/>
</g>
</svg>
