<?xml version="1.0" encoding="utf-8"?>
<!-- Generator: Adobe Illustrator 24.1.0, SVG Export Plug-In . SVG Version: 6.00 Build 0)  -->
<svg version="1.1" id="Layer_1" xmlns="http://www.w3.org/2000/svg" xmlns:xlink="http://www.w3.org/1999/xlink" x="0px" y="0px"
	 viewBox="0 0 14 18" style="enable-background:new 0 0 14 18;" xml:space="preserve">
<style type="text/css">
	.st0{fill:#367C88;}
</style>
<g>
	<g>
		<path class="st0" d="M7-0.02c3.85,0,6.97,1.58,6.97,3.52c0,1.95-3.12,3.52-6.97,3.52c-3.85,0-6.97-1.58-6.97-3.52
			C0.03,1.55,3.15-0.02,7-0.02"/>
	</g>
	<g>
		<path class="st0" d="M7,16.36c-2.87,0-5.34-0.75-6.96-1.96c0,0.03-0.01,0.07-0.01,0.1c0,1.95,3.12,3.52,6.97,3.52
			c3.85,0,6.97-1.58,6.97-3.52c0-0.04-0.01-0.07-0.01-0.1C12.34,15.61,9.87,16.36,7,16.36z"/>
	</g>
	<g>
		<path class="st0" d="M7,12.69c-2.87,0-5.34-0.75-6.96-1.96c0,0.03-0.01,0.07-0.01,0.1c0,1.95,3.12,3.52,6.97,3.52
			c3.85,0,6.97-1.58,6.97-3.52c0-0.04-0.01-0.07-0.01-0.1C12.34,11.94,9.87,12.69,7,12.69z"/>
	</g>
	<g>
		<path class="st0" d="M7,9.02c-2.87,0-5.34-0.75-6.96-1.96c0,0.03-0.01,0.07-0.01,0.1c0,1.95,3.12,3.52,6.97,3.52
			c3.85,0,6.97-1.58,6.97-3.52c0-0.04-0.01-0.07-0.01-0.1C12.34,8.27,9.87,9.02,7,9.02z"/>
	</g>
</g>
</svg>
