<?xml version="1.0" encoding="utf-8"?>
<!-- Generator: Adobe Illustrator 24.1.0, SVG Export Plug-In . SVG Version: 6.00 Build 0)  -->
<svg version="1.1" id="Layer_1" xmlns="http://www.w3.org/2000/svg" xmlns:xlink="http://www.w3.org/1999/xlink" x="0px" y="0px"
	 viewBox="0 0 14 18" style="enable-background:new 0 0 14 18;" xml:space="preserve">
<style type="text/css">
	.st0{fill:#367C88;}
</style>
<g>
	<path class="st0" d="M8.93,12.45H4.34v-0.46c0-0.78,0.09-1.41,0.27-1.9C4.78,9.6,5.04,9.15,5.39,8.75c0.35-0.4,1.14-1.11,2.36-2.12
		C8.41,6.1,8.73,5.61,8.73,5.17c0-0.44-0.13-0.79-0.39-1.03S7.68,3.77,7.15,3.77c-0.57,0-1.04,0.19-1.42,0.57
		C5.36,4.71,5.12,5.37,5.01,6.31L0.33,5.73c0.16-1.72,0.79-3.11,1.88-4.16C3.3,0.53,4.97,0,7.22,0c1.75,0,3.17,0.37,4.25,1.1
		c1.46,0.99,2.2,2.31,2.2,3.96c0,0.68-0.19,1.34-0.57,1.98c-0.38,0.64-1.15,1.41-2.32,2.33c-0.81,0.64-1.33,1.16-1.54,1.55
		C9.03,11.31,8.93,11.82,8.93,12.45z M4.18,13.67h4.91V18H4.18V13.67z"/>
</g>
</svg>
