<?xml version="1.0" encoding="utf-8"?>
<!-- Generator: Adobe Illustrator 24.1.0, SVG Export Plug-In . SVG Version: 6.00 Build 0)  -->
<svg version="1.1" id="Layer_1" xmlns="http://www.w3.org/2000/svg" xmlns:xlink="http://www.w3.org/1999/xlink" x="0px" y="0px"
	 viewBox="0 0 30 16" style="enable-background:new 0 0 30 16;" xml:space="preserve">
<style type="text/css">
	.st0{fill:#C86C4D;}
	.st1{fill:#FFFFFF;}
</style>
<rect class="st0" width="30" height="16"/>
<g>
	<g>
		<g>
			<path class="st1" d="M3.66,11.95v-7.9H5.9L7.11,6.6c0.36,0.7,0.8,1.74,1.1,2.57h0.03c-0.1-0.92-0.16-2.16-0.16-3.43V4.05H9.9v7.9
				H7.85L6.59,9.31C6.21,8.54,5.74,7.49,5.43,6.64H5.4c0.05,0.95,0.09,2.18,0.09,3.54v1.77H3.66z"/>
		</g>
		<g>
			<path class="st1" d="M15.86,8.71h-2.5v1.55h2.8v1.68h-4.83v-7.9h4.67v1.68h-2.65v1.33h2.5V8.71z"/>
		</g>
		<g>
			<path class="st1" d="M18.46,11.95l-1.65-7.9h2.16l0.39,2.91c0.12,0.9,0.24,1.91,0.35,2.77h0.02c0.12-0.91,0.29-1.83,0.45-2.79
				l0.5-2.89h2.02l0.47,2.99c0.14,0.9,0.25,1.72,0.35,2.65h0.02c0.1-0.92,0.23-1.82,0.35-2.75l0.4-2.89h2.03l-1.76,7.9H22.4
				l-0.47-2.78c-0.12-0.69-0.22-1.48-0.32-2.44h-0.02c-0.14,0.95-0.25,1.73-0.4,2.44l-0.54,2.77H18.46z"/>
		</g>
	</g>
</g>
</svg>
